<?xml version="1.0" encoding="utf-8" standalone="no"?>
<!DOCTYPE svg PUBLIC "-//W3C//DTD SVG 1.1//EN"
  "http://www.w3.org/Graphics/SVG/1.1/DTD/svg11.dtd">
<!-- Created with matplotlib (http://matplotlib.org/) -->
<svg height="345pt" version="1.1" viewBox="0 0 460 345" width="460pt" xmlns="http://www.w3.org/2000/svg" xmlns:xlink="http://www.w3.org/1999/xlink">
 <defs>
  <style type="text/css">
*{stroke-linecap:butt;stroke-linejoin:round;}
  </style>
 </defs>
 <g id="figure_1">
  <g id="patch_1">
   <path d="M 0 345.6 
L 460.8 345.6 
L 460.8 0 
L 0 0 
z
" style="fill:#ffffff;"/>
  </g>
  <g id="axes_1">
   <g id="patch_2">
    <path d="M 57.6 307.584 
L 414.72 307.584 
L 414.72 41.472 
L 57.6 41.472 
z
" style="fill:#ffffff;"/>
   </g>
   <g id="matplotlib.axis_1">
    <g id="xtick_1">
     <g id="line2d_1">
      <path clip-path="url(#p4a3f02493b)" d="M 73.832727 307.584 
L 73.832727 41.472 
" style="fill:none;stroke:#b0b0b0;stroke-linecap:square;stroke-width:0.8;"/>
     </g>
     <g id="line2d_2">
      <defs>
       <path d="M 0 0 
L 0 3.5 
" id="md7540d2909" style="stroke:#000000;stroke-width:0.8;"/>
      </defs>
      <g>
       <use style="stroke:#000000;stroke-width:0.8;" x="73.832727" xlink:href="#md7540d2909" y="307.584"/>
      </g>
     </g>
     <g id="text_1">
      <!-- 0 -->
      <defs>
       <path d="M 31.78125 66.40625 
Q 24.171875 66.40625 20.328125 58.90625 
Q 16.5 51.421875 16.5 36.375 
Q 16.5 21.390625 20.328125 13.890625 
Q 24.171875 6.390625 31.78125 6.390625 
Q 39.453125 6.390625 43.28125 13.890625 
Q 47.125 21.390625 47.125 36.375 
Q 47.125 51.421875 43.28125 58.90625 
Q 39.453125 66.40625 31.78125 66.40625 
z
M 31.78125 74.21875 
Q 44.046875 74.21875 50.515625 64.515625 
Q 56.984375 54.828125 56.984375 36.375 
Q 56.984375 17.96875 50.515625 8.265625 
Q 44.046875 -1.421875 31.78125 -1.421875 
Q 19.53125 -1.421875 13.0625 8.265625 
Q 6.59375 17.96875 6.59375 36.375 
Q 6.59375 54.828125 13.0625 64.515625 
Q 19.53125 74.21875 31.78125 74.21875 
z
" id="DejaVuSans-30"/>
      </defs>
      <g transform="translate(70.651477 322.182437)scale(0.1 -0.1)">
       <use xlink:href="#DejaVuSans-30"/>
      </g>
     </g>
    </g>
    <g id="xtick_2">
     <g id="line2d_3">
      <path clip-path="url(#p4a3f02493b)" d="M 128.122785 307.584 
L 128.122785 41.472 
" style="fill:none;stroke:#b0b0b0;stroke-linecap:square;stroke-width:0.8;"/>
     </g>
     <g id="line2d_4">
      <g>
       <use style="stroke:#000000;stroke-width:0.8;" x="128.122785" xlink:href="#md7540d2909" y="307.584"/>
      </g>
     </g>
     <g id="text_2">
      <!-- 50 -->
      <defs>
       <path d="M 10.796875 72.90625 
L 49.515625 72.90625 
L 49.515625 64.59375 
L 19.828125 64.59375 
L 19.828125 46.734375 
Q 21.96875 47.46875 24.109375 47.828125 
Q 26.265625 48.1875 28.421875 48.1875 
Q 40.625 48.1875 47.75 41.5 
Q 54.890625 34.8125 54.890625 23.390625 
Q 54.890625 11.625 47.5625 5.09375 
Q 40.234375 -1.421875 26.90625 -1.421875 
Q 22.3125 -1.421875 17.546875 -0.640625 
Q 12.796875 0.140625 7.71875 1.703125 
L 7.71875 11.625 
Q 12.109375 9.234375 16.796875 8.0625 
Q 21.484375 6.890625 26.703125 6.890625 
Q 35.15625 6.890625 40.078125 11.328125 
Q 45.015625 15.765625 45.015625 23.390625 
Q 45.015625 31 40.078125 35.4375 
Q 35.15625 39.890625 26.703125 39.890625 
Q 22.75 39.890625 18.8125 39.015625 
Q 14.890625 38.140625 10.796875 36.28125 
z
" id="DejaVuSans-35"/>
      </defs>
      <g transform="translate(121.760285 322.182437)scale(0.1 -0.1)">
       <use xlink:href="#DejaVuSans-35"/>
       <use x="63.623047" xlink:href="#DejaVuSans-30"/>
      </g>
     </g>
    </g>
    <g id="xtick_3">
     <g id="line2d_5">
      <path clip-path="url(#p4a3f02493b)" d="M 182.412843 307.584 
L 182.412843 41.472 
" style="fill:none;stroke:#b0b0b0;stroke-linecap:square;stroke-width:0.8;"/>
     </g>
     <g id="line2d_6">
      <g>
       <use style="stroke:#000000;stroke-width:0.8;" x="182.412843" xlink:href="#md7540d2909" y="307.584"/>
      </g>
     </g>
     <g id="text_3">
      <!-- 100 -->
      <defs>
       <path d="M 12.40625 8.296875 
L 28.515625 8.296875 
L 28.515625 63.921875 
L 10.984375 60.40625 
L 10.984375 69.390625 
L 28.421875 72.90625 
L 38.28125 72.90625 
L 38.28125 8.296875 
L 54.390625 8.296875 
L 54.390625 0 
L 12.40625 0 
z
" id="DejaVuSans-31"/>
      </defs>
      <g transform="translate(172.869093 322.182437)scale(0.1 -0.1)">
       <use xlink:href="#DejaVuSans-31"/>
       <use x="63.623047" xlink:href="#DejaVuSans-30"/>
       <use x="127.246094" xlink:href="#DejaVuSans-30"/>
      </g>
     </g>
    </g>
    <g id="xtick_4">
     <g id="line2d_7">
      <path clip-path="url(#p4a3f02493b)" d="M 236.702901 307.584 
L 236.702901 41.472 
" style="fill:none;stroke:#b0b0b0;stroke-linecap:square;stroke-width:0.8;"/>
     </g>
     <g id="line2d_8">
      <g>
       <use style="stroke:#000000;stroke-width:0.8;" x="236.702901" xlink:href="#md7540d2909" y="307.584"/>
      </g>
     </g>
     <g id="text_4">
      <!-- 150 -->
      <g transform="translate(227.159151 322.182437)scale(0.1 -0.1)">
       <use xlink:href="#DejaVuSans-31"/>
       <use x="63.623047" xlink:href="#DejaVuSans-35"/>
       <use x="127.246094" xlink:href="#DejaVuSans-30"/>
      </g>
     </g>
    </g>
    <g id="xtick_5">
     <g id="line2d_9">
      <path clip-path="url(#p4a3f02493b)" d="M 290.992958 307.584 
L 290.992958 41.472 
" style="fill:none;stroke:#b0b0b0;stroke-linecap:square;stroke-width:0.8;"/>
     </g>
     <g id="line2d_10">
      <g>
       <use style="stroke:#000000;stroke-width:0.8;" x="290.992958" xlink:href="#md7540d2909" y="307.584"/>
      </g>
     </g>
     <g id="text_5">
      <!-- 200 -->
      <defs>
       <path d="M 19.1875 8.296875 
L 53.609375 8.296875 
L 53.609375 0 
L 7.328125 0 
L 7.328125 8.296875 
Q 12.9375 14.109375 22.625 23.890625 
Q 32.328125 33.6875 34.8125 36.53125 
Q 39.546875 41.84375 41.421875 45.53125 
Q 43.3125 49.21875 43.3125 52.78125 
Q 43.3125 58.59375 39.234375 62.25 
Q 35.15625 65.921875 28.609375 65.921875 
Q 23.96875 65.921875 18.8125 64.3125 
Q 13.671875 62.703125 7.8125 59.421875 
L 7.8125 69.390625 
Q 13.765625 71.78125 18.9375 73 
Q 24.125 74.21875 28.421875 74.21875 
Q 39.75 74.21875 46.484375 68.546875 
Q 53.21875 62.890625 53.21875 53.421875 
Q 53.21875 48.921875 51.53125 44.890625 
Q 49.859375 40.875 45.40625 35.40625 
Q 44.1875 33.984375 37.640625 27.21875 
Q 31.109375 20.453125 19.1875 8.296875 
z
" id="DejaVuSans-32"/>
      </defs>
      <g transform="translate(281.449208 322.182437)scale(0.1 -0.1)">
       <use xlink:href="#DejaVuSans-32"/>
       <use x="63.623047" xlink:href="#DejaVuSans-30"/>
       <use x="127.246094" xlink:href="#DejaVuSans-30"/>
      </g>
     </g>
    </g>
    <g id="xtick_6">
     <g id="line2d_11">
      <path clip-path="url(#p4a3f02493b)" d="M 345.283016 307.584 
L 345.283016 41.472 
" style="fill:none;stroke:#b0b0b0;stroke-linecap:square;stroke-width:0.8;"/>
     </g>
     <g id="line2d_12">
      <g>
       <use style="stroke:#000000;stroke-width:0.8;" x="345.283016" xlink:href="#md7540d2909" y="307.584"/>
      </g>
     </g>
     <g id="text_6">
      <!-- 250 -->
      <g transform="translate(335.739266 322.182437)scale(0.1 -0.1)">
       <use xlink:href="#DejaVuSans-32"/>
       <use x="63.623047" xlink:href="#DejaVuSans-35"/>
       <use x="127.246094" xlink:href="#DejaVuSans-30"/>
      </g>
     </g>
    </g>
    <g id="xtick_7">
     <g id="line2d_13">
      <path clip-path="url(#p4a3f02493b)" d="M 399.573074 307.584 
L 399.573074 41.472 
" style="fill:none;stroke:#b0b0b0;stroke-linecap:square;stroke-width:0.8;"/>
     </g>
     <g id="line2d_14">
      <g>
       <use style="stroke:#000000;stroke-width:0.8;" x="399.573074" xlink:href="#md7540d2909" y="307.584"/>
      </g>
     </g>
     <g id="text_7">
      <!-- 300 -->
      <defs>
       <path d="M 40.578125 39.3125 
Q 47.65625 37.796875 51.625 33 
Q 55.609375 28.21875 55.609375 21.1875 
Q 55.609375 10.40625 48.1875 4.484375 
Q 40.765625 -1.421875 27.09375 -1.421875 
Q 22.515625 -1.421875 17.65625 -0.515625 
Q 12.796875 0.390625 7.625 2.203125 
L 7.625 11.71875 
Q 11.71875 9.328125 16.59375 8.109375 
Q 21.484375 6.890625 26.8125 6.890625 
Q 36.078125 6.890625 40.9375 10.546875 
Q 45.796875 14.203125 45.796875 21.1875 
Q 45.796875 27.640625 41.28125 31.265625 
Q 36.765625 34.90625 28.71875 34.90625 
L 20.21875 34.90625 
L 20.21875 43.015625 
L 29.109375 43.015625 
Q 36.375 43.015625 40.234375 45.921875 
Q 44.09375 48.828125 44.09375 54.296875 
Q 44.09375 59.90625 40.109375 62.90625 
Q 36.140625 65.921875 28.71875 65.921875 
Q 24.65625 65.921875 20.015625 65.03125 
Q 15.375 64.15625 9.8125 62.3125 
L 9.8125 71.09375 
Q 15.4375 72.65625 20.34375 73.4375 
Q 25.25 74.21875 29.59375 74.21875 
Q 40.828125 74.21875 47.359375 69.109375 
Q 53.90625 64.015625 53.90625 55.328125 
Q 53.90625 49.265625 50.4375 45.09375 
Q 46.96875 40.921875 40.578125 39.3125 
z
" id="DejaVuSans-33"/>
      </defs>
      <g transform="translate(390.029324 322.182437)scale(0.1 -0.1)">
       <use xlink:href="#DejaVuSans-33"/>
       <use x="63.623047" xlink:href="#DejaVuSans-30"/>
       <use x="127.246094" xlink:href="#DejaVuSans-30"/>
      </g>
     </g>
    </g>
    <g id="text_8">
     <!-- Generations -->
     <defs>
      <path d="M 59.515625 10.40625 
L 59.515625 29.984375 
L 43.40625 29.984375 
L 43.40625 38.09375 
L 69.28125 38.09375 
L 69.28125 6.78125 
Q 63.578125 2.734375 56.6875 0.65625 
Q 49.8125 -1.421875 42 -1.421875 
Q 24.90625 -1.421875 15.25 8.5625 
Q 5.609375 18.5625 5.609375 36.375 
Q 5.609375 54.25 15.25 64.234375 
Q 24.90625 74.21875 42 74.21875 
Q 49.125 74.21875 55.546875 72.453125 
Q 61.96875 70.703125 67.390625 67.28125 
L 67.390625 56.78125 
Q 61.921875 61.421875 55.765625 63.765625 
Q 49.609375 66.109375 42.828125 66.109375 
Q 29.4375 66.109375 22.71875 58.640625 
Q 16.015625 51.171875 16.015625 36.375 
Q 16.015625 21.625 22.71875 14.15625 
Q 29.4375 6.6875 42.828125 6.6875 
Q 48.046875 6.6875 52.140625 7.59375 
Q 56.25 8.5 59.515625 10.40625 
z
" id="DejaVuSans-47"/>
      <path d="M 56.203125 29.59375 
L 56.203125 25.203125 
L 14.890625 25.203125 
Q 15.484375 15.921875 20.484375 11.0625 
Q 25.484375 6.203125 34.421875 6.203125 
Q 39.59375 6.203125 44.453125 7.46875 
Q 49.3125 8.734375 54.109375 11.28125 
L 54.109375 2.78125 
Q 49.265625 0.734375 44.1875 -0.34375 
Q 39.109375 -1.421875 33.890625 -1.421875 
Q 20.796875 -1.421875 13.15625 6.1875 
Q 5.515625 13.8125 5.515625 26.8125 
Q 5.515625 40.234375 12.765625 48.109375 
Q 20.015625 56 32.328125 56 
Q 43.359375 56 49.78125 48.890625 
Q 56.203125 41.796875 56.203125 29.59375 
z
M 47.21875 32.234375 
Q 47.125 39.59375 43.09375 43.984375 
Q 39.0625 48.390625 32.421875 48.390625 
Q 24.90625 48.390625 20.390625 44.140625 
Q 15.875 39.890625 15.1875 32.171875 
z
" id="DejaVuSans-65"/>
      <path d="M 54.890625 33.015625 
L 54.890625 0 
L 45.90625 0 
L 45.90625 32.71875 
Q 45.90625 40.484375 42.875 44.328125 
Q 39.84375 48.1875 33.796875 48.1875 
Q 26.515625 48.1875 22.3125 43.546875 
Q 18.109375 38.921875 18.109375 30.90625 
L 18.109375 0 
L 9.078125 0 
L 9.078125 54.6875 
L 18.109375 54.6875 
L 18.109375 46.1875 
Q 21.34375 51.125 25.703125 53.5625 
Q 30.078125 56 35.796875 56 
Q 45.21875 56 50.046875 50.171875 
Q 54.890625 44.34375 54.890625 33.015625 
z
" id="DejaVuSans-6e"/>
      <path d="M 41.109375 46.296875 
Q 39.59375 47.171875 37.8125 47.578125 
Q 36.03125 48 33.890625 48 
Q 26.265625 48 22.1875 43.046875 
Q 18.109375 38.09375 18.109375 28.8125 
L 18.109375 0 
L 9.078125 0 
L 9.078125 54.6875 
L 18.109375 54.6875 
L 18.109375 46.1875 
Q 20.953125 51.171875 25.484375 53.578125 
Q 30.03125 56 36.53125 56 
Q 37.453125 56 38.578125 55.875 
Q 39.703125 55.765625 41.0625 55.515625 
z
" id="DejaVuSans-72"/>
      <path d="M 34.28125 27.484375 
Q 23.390625 27.484375 19.1875 25 
Q 14.984375 22.515625 14.984375 16.5 
Q 14.984375 11.71875 18.140625 8.90625 
Q 21.296875 6.109375 26.703125 6.109375 
Q 34.1875 6.109375 38.703125 11.40625 
Q 43.21875 16.703125 43.21875 25.484375 
L 43.21875 27.484375 
z
M 52.203125 31.203125 
L 52.203125 0 
L 43.21875 0 
L 43.21875 8.296875 
Q 40.140625 3.328125 35.546875 0.953125 
Q 30.953125 -1.421875 24.3125 -1.421875 
Q 15.921875 -1.421875 10.953125 3.296875 
Q 6 8.015625 6 15.921875 
Q 6 25.140625 12.171875 29.828125 
Q 18.359375 34.515625 30.609375 34.515625 
L 43.21875 34.515625 
L 43.21875 35.40625 
Q 43.21875 41.609375 39.140625 45 
Q 35.0625 48.390625 27.6875 48.390625 
Q 23 48.390625 18.546875 47.265625 
Q 14.109375 46.140625 10.015625 43.890625 
L 10.015625 52.203125 
Q 14.9375 54.109375 19.578125 55.046875 
Q 24.21875 56 28.609375 56 
Q 40.484375 56 46.34375 49.84375 
Q 52.203125 43.703125 52.203125 31.203125 
z
" id="DejaVuSans-61"/>
      <path d="M 18.3125 70.21875 
L 18.3125 54.6875 
L 36.8125 54.6875 
L 36.8125 47.703125 
L 18.3125 47.703125 
L 18.3125 18.015625 
Q 18.3125 11.328125 20.140625 9.421875 
Q 21.96875 7.515625 27.59375 7.515625 
L 36.8125 7.515625 
L 36.8125 0 
L 27.59375 0 
Q 17.1875 0 13.234375 3.875 
Q 9.28125 7.765625 9.28125 18.015625 
L 9.28125 47.703125 
L 2.6875 47.703125 
L 2.6875 54.6875 
L 9.28125 54.6875 
L 9.28125 70.21875 
z
" id="DejaVuSans-74"/>
      <path d="M 9.421875 54.6875 
L 18.40625 54.6875 
L 18.40625 0 
L 9.421875 0 
z
M 9.421875 75.984375 
L 18.40625 75.984375 
L 18.40625 64.59375 
L 9.421875 64.59375 
z
" id="DejaVuSans-69"/>
      <path d="M 30.609375 48.390625 
Q 23.390625 48.390625 19.1875 42.75 
Q 14.984375 37.109375 14.984375 27.296875 
Q 14.984375 17.484375 19.15625 11.84375 
Q 23.34375 6.203125 30.609375 6.203125 
Q 37.796875 6.203125 41.984375 11.859375 
Q 46.1875 17.53125 46.1875 27.296875 
Q 46.1875 37.015625 41.984375 42.703125 
Q 37.796875 48.390625 30.609375 48.390625 
z
M 30.609375 56 
Q 42.328125 56 49.015625 48.375 
Q 55.71875 40.765625 55.71875 27.296875 
Q 55.71875 13.875 49.015625 6.21875 
Q 42.328125 -1.421875 30.609375 -1.421875 
Q 18.84375 -1.421875 12.171875 6.21875 
Q 5.515625 13.875 5.515625 27.296875 
Q 5.515625 40.765625 12.171875 48.375 
Q 18.84375 56 30.609375 56 
z
" id="DejaVuSans-6f"/>
      <path d="M 44.28125 53.078125 
L 44.28125 44.578125 
Q 40.484375 46.53125 36.375 47.5 
Q 32.28125 48.484375 27.875 48.484375 
Q 21.1875 48.484375 17.84375 46.4375 
Q 14.5 44.390625 14.5 40.28125 
Q 14.5 37.15625 16.890625 35.375 
Q 19.28125 33.59375 26.515625 31.984375 
L 29.59375 31.296875 
Q 39.15625 29.25 43.1875 25.515625 
Q 47.21875 21.78125 47.21875 15.09375 
Q 47.21875 7.46875 41.1875 3.015625 
Q 35.15625 -1.421875 24.609375 -1.421875 
Q 20.21875 -1.421875 15.453125 -0.5625 
Q 10.6875 0.296875 5.421875 2 
L 5.421875 11.28125 
Q 10.40625 8.6875 15.234375 7.390625 
Q 20.0625 6.109375 24.8125 6.109375 
Q 31.15625 6.109375 34.5625 8.28125 
Q 37.984375 10.453125 37.984375 14.40625 
Q 37.984375 18.0625 35.515625 20.015625 
Q 33.0625 21.96875 24.703125 23.78125 
L 21.578125 24.515625 
Q 13.234375 26.265625 9.515625 29.90625 
Q 5.8125 33.546875 5.8125 39.890625 
Q 5.8125 47.609375 11.28125 51.796875 
Q 16.75 56 26.8125 56 
Q 31.78125 56 36.171875 55.265625 
Q 40.578125 54.546875 44.28125 53.078125 
z
" id="DejaVuSans-73"/>
     </defs>
     <g transform="translate(205.662344 335.860562)scale(0.1 -0.1)">
      <use xlink:href="#DejaVuSans-47"/>
      <use x="77.490234" xlink:href="#DejaVuSans-65"/>
      <use x="139.013672" xlink:href="#DejaVuSans-6e"/>
      <use x="202.392578" xlink:href="#DejaVuSans-65"/>
      <use x="263.916016" xlink:href="#DejaVuSans-72"/>
      <use x="305.029297" xlink:href="#DejaVuSans-61"/>
      <use x="366.308594" xlink:href="#DejaVuSans-74"/>
      <use x="405.517578" xlink:href="#DejaVuSans-69"/>
      <use x="433.300781" xlink:href="#DejaVuSans-6f"/>
      <use x="494.482422" xlink:href="#DejaVuSans-6e"/>
      <use x="557.861328" xlink:href="#DejaVuSans-73"/>
     </g>
    </g>
   </g>
   <g id="matplotlib.axis_2">
    <g id="ytick_1">
     <g id="line2d_15">
      <path clip-path="url(#p4a3f02493b)" d="M 57.6 267.102069 
L 414.72 267.102069 
" style="fill:none;stroke:#b0b0b0;stroke-linecap:square;stroke-width:0.8;"/>
     </g>
     <g id="line2d_16">
      <defs>
       <path d="M 0 0 
L -3.5 0 
" id="m0b521bef4d" style="stroke:#000000;stroke-width:0.8;"/>
      </defs>
      <g>
       <use style="stroke:#000000;stroke-width:0.8;" x="57.6" xlink:href="#m0b521bef4d" y="267.102069"/>
      </g>
     </g>
     <g id="text_9">
      <!-- 0.2 -->
      <defs>
       <path d="M 10.6875 12.40625 
L 21 12.40625 
L 21 0 
L 10.6875 0 
z
" id="DejaVuSans-2e"/>
      </defs>
      <g transform="translate(34.696875 270.901288)scale(0.1 -0.1)">
       <use xlink:href="#DejaVuSans-30"/>
       <use x="63.623047" xlink:href="#DejaVuSans-2e"/>
       <use x="95.410156" xlink:href="#DejaVuSans-32"/>
      </g>
     </g>
    </g>
    <g id="ytick_2">
     <g id="line2d_17">
      <path clip-path="url(#p4a3f02493b)" d="M 57.6 217.144149 
L 414.72 217.144149 
" style="fill:none;stroke:#b0b0b0;stroke-linecap:square;stroke-width:0.8;"/>
     </g>
     <g id="line2d_18">
      <g>
       <use style="stroke:#000000;stroke-width:0.8;" x="57.6" xlink:href="#m0b521bef4d" y="217.144149"/>
      </g>
     </g>
     <g id="text_10">
      <!-- 0.4 -->
      <defs>
       <path d="M 37.796875 64.3125 
L 12.890625 25.390625 
L 37.796875 25.390625 
z
M 35.203125 72.90625 
L 47.609375 72.90625 
L 47.609375 25.390625 
L 58.015625 25.390625 
L 58.015625 17.1875 
L 47.609375 17.1875 
L 47.609375 0 
L 37.796875 0 
L 37.796875 17.1875 
L 4.890625 17.1875 
L 4.890625 26.703125 
z
" id="DejaVuSans-34"/>
      </defs>
      <g transform="translate(34.696875 220.943368)scale(0.1 -0.1)">
       <use xlink:href="#DejaVuSans-30"/>
       <use x="63.623047" xlink:href="#DejaVuSans-2e"/>
       <use x="95.410156" xlink:href="#DejaVuSans-34"/>
      </g>
     </g>
    </g>
    <g id="ytick_3">
     <g id="line2d_19">
      <path clip-path="url(#p4a3f02493b)" d="M 57.6 167.186229 
L 414.72 167.186229 
" style="fill:none;stroke:#b0b0b0;stroke-linecap:square;stroke-width:0.8;"/>
     </g>
     <g id="line2d_20">
      <g>
       <use style="stroke:#000000;stroke-width:0.8;" x="57.6" xlink:href="#m0b521bef4d" y="167.186229"/>
      </g>
     </g>
     <g id="text_11">
      <!-- 0.6 -->
      <defs>
       <path d="M 33.015625 40.375 
Q 26.375 40.375 22.484375 35.828125 
Q 18.609375 31.296875 18.609375 23.390625 
Q 18.609375 15.53125 22.484375 10.953125 
Q 26.375 6.390625 33.015625 6.390625 
Q 39.65625 6.390625 43.53125 10.953125 
Q 47.40625 15.53125 47.40625 23.390625 
Q 47.40625 31.296875 43.53125 35.828125 
Q 39.65625 40.375 33.015625 40.375 
z
M 52.59375 71.296875 
L 52.59375 62.3125 
Q 48.875 64.0625 45.09375 64.984375 
Q 41.3125 65.921875 37.59375 65.921875 
Q 27.828125 65.921875 22.671875 59.328125 
Q 17.53125 52.734375 16.796875 39.40625 
Q 19.671875 43.65625 24.015625 45.921875 
Q 28.375 48.1875 33.59375 48.1875 
Q 44.578125 48.1875 50.953125 41.515625 
Q 57.328125 34.859375 57.328125 23.390625 
Q 57.328125 12.15625 50.6875 5.359375 
Q 44.046875 -1.421875 33.015625 -1.421875 
Q 20.359375 -1.421875 13.671875 8.265625 
Q 6.984375 17.96875 6.984375 36.375 
Q 6.984375 53.65625 15.1875 63.9375 
Q 23.390625 74.21875 37.203125 74.21875 
Q 40.921875 74.21875 44.703125 73.484375 
Q 48.484375 72.75 52.59375 71.296875 
z
" id="DejaVuSans-36"/>
      </defs>
      <g transform="translate(34.696875 170.985448)scale(0.1 -0.1)">
       <use xlink:href="#DejaVuSans-30"/>
       <use x="63.623047" xlink:href="#DejaVuSans-2e"/>
       <use x="95.410156" xlink:href="#DejaVuSans-36"/>
      </g>
     </g>
    </g>
    <g id="ytick_4">
     <g id="line2d_21">
      <path clip-path="url(#p4a3f02493b)" d="M 57.6 117.22831 
L 414.72 117.22831 
" style="fill:none;stroke:#b0b0b0;stroke-linecap:square;stroke-width:0.8;"/>
     </g>
     <g id="line2d_22">
      <g>
       <use style="stroke:#000000;stroke-width:0.8;" x="57.6" xlink:href="#m0b521bef4d" y="117.22831"/>
      </g>
     </g>
     <g id="text_12">
      <!-- 0.8 -->
      <defs>
       <path d="M 31.78125 34.625 
Q 24.75 34.625 20.71875 30.859375 
Q 16.703125 27.09375 16.703125 20.515625 
Q 16.703125 13.921875 20.71875 10.15625 
Q 24.75 6.390625 31.78125 6.390625 
Q 38.8125 6.390625 42.859375 10.171875 
Q 46.921875 13.96875 46.921875 20.515625 
Q 46.921875 27.09375 42.890625 30.859375 
Q 38.875 34.625 31.78125 34.625 
z
M 21.921875 38.8125 
Q 15.578125 40.375 12.03125 44.71875 
Q 8.5 49.078125 8.5 55.328125 
Q 8.5 64.0625 14.71875 69.140625 
Q 20.953125 74.21875 31.78125 74.21875 
Q 42.671875 74.21875 48.875 69.140625 
Q 55.078125 64.0625 55.078125 55.328125 
Q 55.078125 49.078125 51.53125 44.71875 
Q 48 40.375 41.703125 38.8125 
Q 48.828125 37.15625 52.796875 32.3125 
Q 56.78125 27.484375 56.78125 20.515625 
Q 56.78125 9.90625 50.3125 4.234375 
Q 43.84375 -1.421875 31.78125 -1.421875 
Q 19.734375 -1.421875 13.25 4.234375 
Q 6.78125 9.90625 6.78125 20.515625 
Q 6.78125 27.484375 10.78125 32.3125 
Q 14.796875 37.15625 21.921875 38.8125 
z
M 18.3125 54.390625 
Q 18.3125 48.734375 21.84375 45.5625 
Q 25.390625 42.390625 31.78125 42.390625 
Q 38.140625 42.390625 41.71875 45.5625 
Q 45.3125 48.734375 45.3125 54.390625 
Q 45.3125 60.0625 41.71875 63.234375 
Q 38.140625 66.40625 31.78125 66.40625 
Q 25.390625 66.40625 21.84375 63.234375 
Q 18.3125 60.0625 18.3125 54.390625 
z
" id="DejaVuSans-38"/>
      </defs>
      <g transform="translate(34.696875 121.027528)scale(0.1 -0.1)">
       <use xlink:href="#DejaVuSans-30"/>
       <use x="63.623047" xlink:href="#DejaVuSans-2e"/>
       <use x="95.410156" xlink:href="#DejaVuSans-38"/>
      </g>
     </g>
    </g>
    <g id="ytick_5">
     <g id="line2d_23">
      <path clip-path="url(#p4a3f02493b)" d="M 57.6 67.27039 
L 414.72 67.27039 
" style="fill:none;stroke:#b0b0b0;stroke-linecap:square;stroke-width:0.8;"/>
     </g>
     <g id="line2d_24">
      <g>
       <use style="stroke:#000000;stroke-width:0.8;" x="57.6" xlink:href="#m0b521bef4d" y="67.27039"/>
      </g>
     </g>
     <g id="text_13">
      <!-- 1.0 -->
      <g transform="translate(34.696875 71.069609)scale(0.1 -0.1)">
       <use xlink:href="#DejaVuSans-31"/>
       <use x="63.623047" xlink:href="#DejaVuSans-2e"/>
       <use x="95.410156" xlink:href="#DejaVuSans-30"/>
      </g>
     </g>
    </g>
    <g id="text_14">
     <!-- Fitness -->
     <defs>
      <path d="M 9.8125 72.90625 
L 51.703125 72.90625 
L 51.703125 64.59375 
L 19.671875 64.59375 
L 19.671875 43.109375 
L 48.578125 43.109375 
L 48.578125 34.8125 
L 19.671875 34.8125 
L 19.671875 0 
L 9.8125 0 
z
" id="DejaVuSans-46"/>
     </defs>
     <g transform="translate(28.617187 192.202219)rotate(-90)scale(0.1 -0.1)">
      <use xlink:href="#DejaVuSans-46"/>
      <use x="57.410156" xlink:href="#DejaVuSans-69"/>
      <use x="85.193359" xlink:href="#DejaVuSans-74"/>
      <use x="124.402344" xlink:href="#DejaVuSans-6e"/>
      <use x="187.78125" xlink:href="#DejaVuSans-65"/>
      <use x="249.304688" xlink:href="#DejaVuSans-73"/>
      <use x="301.404297" xlink:href="#DejaVuSans-73"/>
     </g>
    </g>
   </g>
   <g id="line2d_25">
    <path clip-path="url(#p4a3f02493b)" d="M 73.832727 250.860194 
L 74.918528 199.825404 
L 76.00433 172.304141 
L 77.090131 158.782197 
L 78.175932 150.378165 
L 79.261733 150.777828 
L 80.347534 140.852855 
L 81.433335 128.674224 
L 82.519137 122.457239 
L 83.604938 129.351432 
L 84.690739 126.365058 
L 85.77654 127.541845 
L 86.862341 130.195165 
L 87.948142 128.452189 
L 89.033943 126.154125 
L 90.119745 118.316282 
L 91.205546 119.43756 
L 92.291347 125.43251 
L 93.377148 128.862954 
L 94.462949 143.628295 
L 96.634552 126.875739 
L 97.720353 128.463291 
L 98.806154 124.537589 
L 99.891955 129.862112 
L 100.977756 140.397683 
L 102.063557 135.512908 
L 103.149358 126.822877 
L 104.23516 143.539481 
L 105.320961 117.541245 
L 106.406762 122.379526 
L 107.492563 113.198371 
L 108.578364 122.492332 
L 109.664165 113.897782 
L 110.749967 117.91206 
L 111.835768 115.662962 
L 112.921569 123.711737 
L 114.00737 117.018773 
L 115.093171 125.277086 
L 116.178972 115.78361 
L 117.264773 119.374153 
L 118.350575 131.399596 
L 119.436376 123.375257 
L 120.522177 118.90475 
L 121.607978 115.740674 
L 123.77958 142.706849 
L 124.865382 122.490544 
L 125.951183 144.017825 
L 127.036984 149.445617 
L 128.122785 139.265303 
L 129.208586 135.33528 
L 130.294387 139.998019 
L 131.380189 138.93225 
L 132.46599 138.998861 
L 133.551791 133.980865 
L 134.637592 128.341171 
L 135.723393 116.762036 
L 136.809194 131.771615 
L 137.894995 131.327545 
L 138.980797 129.884316 
L 140.066598 105.893413 
L 141.152399 124.344538 
L 142.2382 120.914094 
L 143.324001 116.373474 
L 144.409802 121.757828 
L 146.581405 105.30502 
L 147.667206 128.119136 
L 148.753007 115.252196 
L 149.838808 121.524691 
L 150.924609 124.921829 
L 152.01041 115.363214 
L 153.096212 118.80476 
L 154.182013 116.784239 
L 155.267814 125.943191 
L 156.353615 115.285502 
L 157.439416 127.142181 
L 158.525217 117.705685 
L 159.611019 120.148073 
L 160.69682 114.031003 
L 161.782621 120.481125 
L 162.868422 113.531424 
L 163.954223 126.032005 
L 165.040024 120.647652 
L 166.125825 111.799549 
L 167.211627 117.661278 
L 168.297428 116.573306 
L 169.383229 112.487858 
L 170.46903 123.323176 
L 171.554831 120.503329 
L 172.640632 107.170115 
L 173.726434 124.749938 
L 174.812235 108.041417 
L 175.898036 110.578282 
L 176.983837 117.505854 
L 178.069638 115.684356 
L 179.155439 115.507904 
L 180.24124 112.321332 
L 181.327042 120.769771 
L 182.412843 126.82023 
L 183.498644 117.128394 
L 184.584445 121.402571 
L 185.670246 123.389786 
L 186.756047 128.474392 
L 188.92765 115.118975 
L 190.013451 124.089197 
L 191.099252 122.101982 
L 192.185053 126.309549 
L 194.356656 118.171959 
L 195.442457 130.53932 
L 196.528258 125.043949 
L 197.614059 116.140337 
L 198.69986 129.995334 
L 200.871462 116.195846 
L 203.043065 109.035211 
L 204.128866 106.992487 
L 205.214667 111.188952 
L 206.300468 111.93277 
L 207.386269 109.135127 
L 208.472071 117.528057 
L 209.557872 112.576672 
L 210.643673 125.932089 
L 211.729474 124.533268 
L 212.815275 109.468179 
L 213.901076 108.246986 
L 214.986877 102.984752 
L 216.072679 112.643283 
L 217.15848 106.404094 
L 218.244281 110.411829 
L 219.330082 111.644124 
L 220.415883 107.270031 
L 221.501684 106.737147 
L 222.587486 105.338325 
L 223.673287 110.434033 
L 224.759088 107.469863 
L 225.844889 108.413512 
L 226.93069 110.001064 
L 228.016491 102.041102 
L 229.102292 106.515111 
L 230.188094 106.892571 
L 231.273895 108.957499 
L 232.359696 108.757667 
L 233.445497 99.654224 
L 234.531298 105.138493 
L 235.617099 113.06515 
L 236.702901 108.71326 
L 237.788702 111.788447 
L 238.874503 111.655226 
L 239.960304 108.646649 
L 241.046105 113.498118 
L 242.131906 107.814017 
L 243.217708 111.344377 
L 244.303509 107.147912 
L 245.38931 100.908723 
L 246.475111 103.584247 
L 247.560912 111.233359 
L 248.646713 111.36658 
L 249.732514 107.425456 
L 250.818316 109.390467 
L 251.904117 101.053045 
L 252.989918 114.486175 
L 254.075719 103.806282 
L 255.16152 107.58088 
L 256.247321 105.8157 
L 257.333123 106.337483 
L 258.418924 99.387781 
L 259.504725 116.02932 
L 260.590526 118.038738 
L 261.676327 118.49391 
L 262.762128 124.499962 
L 263.847929 105.604767 
L 264.933731 109.035211 
L 266.019532 103.750773 
L 267.105333 104.772135 
L 268.191134 110.367422 
L 269.276935 104.272556 
L 270.362736 108.768769 
L 271.448538 106.692739 
L 272.534339 107.347743 
L 273.62014 107.181217 
L 274.705941 116.373474 
L 275.791742 117.394836 
L 276.877543 117.139496 
L 277.963344 120.225785 
L 280.134947 109.568095 
L 281.220748 118.571623 
L 282.306549 119.126711 
L 283.39235 115.329909 
L 284.478151 107.969442 
L 285.563953 101.3972 
L 286.649754 111.74404 
L 287.735555 115.71847 
L 288.821356 113.964392 
L 289.907157 117.727889 
L 290.992958 110.889205 
L 292.07876 107.003589 
L 293.164561 112.94303 
L 294.250362 102.118814 
L 295.336163 119.137812 
L 296.421964 122.77919 
L 297.507765 107.925035 
L 298.593566 103.617552 
L 299.679368 104.494591 
L 300.765169 110.400727 
L 301.85097 107.059098 
L 302.936771 108.346902 
L 304.022572 105.604767 
L 305.108373 113.564729 
L 306.194175 103.9173 
L 307.279976 114.597193 
L 308.365777 106.637231 
L 309.451578 113.32049 
L 311.62318 102.585088 
L 312.708981 114.930245 
L 313.794783 123.78945 
L 314.880584 104.150436 
L 315.966385 108.457919 
L 317.052186 106.392992 
L 318.137987 110.767085 
L 319.223788 105.993329 
L 320.30959 103.939503 
L 321.395391 105.782395 
L 322.481192 102.34085 
L 323.566993 111.843956 
L 324.652794 110.578355 
L 325.738595 111.55531 
L 326.824396 107.047996 
L 327.910198 106.071041 
L 328.995999 109.856741 
L 330.0818 115.896098 
L 331.167601 100.00948 
L 332.253402 111.177851 
L 333.339203 111.766244 
L 334.425005 111.100138 
L 335.510806 122.46834 
L 336.596607 111.999381 
L 337.682408 110.933612 
L 338.768209 116.961867 
L 339.85401 104.5501 
L 340.939811 108.002747 
L 342.025613 107.192319 
L 343.111414 101.541523 
L 344.197215 105.926718 
L 345.283016 103.706366 
L 346.368817 102.063306 
L 347.454618 100.064989 
L 349.626221 107.303336 
L 350.712022 106.293076 
L 351.797823 106.182059 
L 352.883624 104.572303 
L 353.969425 106.481806 
L 355.055227 111.255563 
L 356.141028 114.008799 
L 357.226829 104.072724 
L 358.31263 103.883994 
L 359.398431 112.354637 
L 360.484232 104.749932 
L 361.570033 102.485172 
L 362.655835 112.321332 
L 363.741636 107.39215 
L 364.827437 106.037736 
L 365.913238 110.622763 
L 366.999039 108.246986 
L 368.08484 102.385257 
L 369.170642 102.873734 
L 370.256443 100.38694 
L 371.342244 108.047154 
L 372.428045 107.292235 
L 373.513846 107.847323 
L 374.599647 107.358845 
L 375.685448 105.493749 
L 376.77125 100.653382 
L 377.857051 112.276925 
L 378.942852 113.742357 
L 380.028653 104.92756 
L 381.114454 107.89173 
L 382.200255 116.140337 
L 383.286057 118.593826 
L 384.371858 109.867843 
L 385.457659 108.435716 
L 386.54346 106.293076 
L 387.629261 114.852533 
L 388.715062 106.392992 
L 389.800863 110.633864 
L 390.886665 103.273397 
L 391.972466 108.746565 
L 393.058267 109.734622 
L 394.144068 108.102663 
L 395.229869 106.703841 
L 396.31567 109.579197 
L 397.401472 113.853375 
L 398.487273 102.418562 
L 398.487273 102.418562 
" style="fill:none;stroke:#0000ff;stroke-linecap:square;stroke-width:1.5;"/>
   </g>
   <g id="line2d_26">
    <path clip-path="url(#p4a3f02493b)" d="M 73.832727 295.488 
L 74.918528 247.743743 
L 76.00433 219.339363 
L 77.090131 205.484995 
L 78.175932 193.236141 
L 79.261733 202.392913 
L 80.347534 190.813138 
L 81.433335 173.972791 
L 82.519137 166.65383 
L 83.604938 181.576376 
L 84.690739 178.217552 
L 85.77654 185.091176 
L 86.862341 187.687895 
L 87.948142 185.221632 
L 89.033943 178.501111 
L 90.119745 160.547056 
L 91.205546 162.996867 
L 92.291347 179.013345 
L 93.377148 186.89065 
L 94.462949 209.114297 
L 95.54875 193.739141 
L 96.634552 180.618565 
L 97.720353 181.560649 
L 98.806154 175.301416 
L 99.891955 198.270267 
L 100.977756 208.887607 
L 102.063557 201.961037 
L 103.149358 190.631999 
L 104.23516 215.830609 
L 105.320961 171.977009 
L 106.406762 179.622104 
L 107.492563 161.223564 
L 108.578364 177.941516 
L 109.664165 165.732027 
L 110.749967 170.009687 
L 111.835768 163.842641 
L 112.921569 175.333899 
L 114.00737 164.237275 
L 115.093171 179.74061 
L 116.178972 163.019755 
L 117.264773 169.200129 
L 118.350575 188.064245 
L 119.436376 171.372728 
L 120.522177 167.680577 
L 121.607978 165.531472 
L 122.693779 184.029451 
L 123.77958 204.724687 
L 124.865382 175.192954 
L 125.951183 206.608506 
L 127.036984 217.097702 
L 128.122785 202.883449 
L 129.208586 196.024743 
L 130.294387 202.670821 
L 131.380189 205.436264 
L 132.46599 202.39684 
L 133.551791 196.82621 
L 134.637592 187.26752 
L 135.723393 168.05257 
L 136.809194 190.674168 
L 137.894995 191.602638 
L 138.980797 190.956005 
L 140.066598 145.602515 
L 141.152399 182.169543 
L 142.2382 170.469465 
L 143.324001 167.546231 
L 144.409802 174.775021 
L 145.495604 165.658425 
L 146.581405 145.861443 
L 147.667206 187.408967 
L 148.753007 166.980341 
L 149.838808 177.50903 
L 150.924609 179.602253 
L 152.01041 164.331384 
L 153.096212 174.201024 
L 154.182013 167.104122 
L 155.267814 183.579104 
L 156.353615 168.316048 
L 157.439416 188.248774 
L 158.525217 169.529863 
L 159.611019 176.260612 
L 160.69682 164.512594 
L 161.782621 176.445009 
L 162.868422 160.641178 
L 163.954223 182.055979 
L 165.040024 174.610355 
L 166.125825 159.790531 
L 167.211627 174.146035 
L 168.297428 167.1253 
L 169.383229 167.39874 
L 170.46903 187.994571 
L 171.554831 175.839032 
L 172.640632 151.217058 
L 173.726434 188.580391 
L 174.812235 158.166182 
L 175.898036 158.978437 
L 176.983837 167.509054 
L 178.069638 167.488867 
L 179.155439 171.220967 
L 180.24124 165.516994 
L 182.412843 186.539139 
L 183.498644 165.861667 
L 184.584445 174.977765 
L 185.670246 179.916199 
L 186.756047 190.932504 
L 187.841849 176.823717 
L 188.92765 167.72574 
L 190.013451 179.061382 
L 191.099252 180.241115 
L 192.185053 186.869193 
L 194.356656 174.77115 
L 195.442457 193.057655 
L 196.528258 188.126161 
L 197.614059 170.168847 
L 198.69986 192.980677 
L 200.871462 169.997248 
L 201.957264 163.92022 
L 203.043065 154.56631 
L 204.128866 153.391889 
L 205.214667 162.952882 
L 206.300468 159.183667 
L 207.386269 157.005613 
L 208.472071 172.808157 
L 209.557872 162.758456 
L 210.643673 186.49282 
L 211.729474 184.523706 
L 212.815275 154.762474 
L 213.901076 152.82006 
L 214.986877 144.414046 
L 216.072679 162.200277 
L 217.15848 152.406691 
L 218.244281 156.347907 
L 219.330082 156.637547 
L 220.415883 151.128785 
L 221.501684 152.947447 
L 222.587486 150.227216 
L 223.673287 156.677835 
L 224.759088 148.796616 
L 225.844889 154.003054 
L 226.93069 156.63156 
L 228.016491 141.975008 
L 229.102292 146.698 
L 230.188094 148.916346 
L 231.273895 150.225781 
L 232.359696 152.633054 
L 233.445497 134.158845 
L 234.531298 150.554908 
L 235.617099 159.490986 
L 236.702901 154.730237 
L 237.788702 157.399525 
L 238.874503 159.183073 
L 239.960304 155.958022 
L 241.046105 162.770305 
L 242.131906 150.658032 
L 243.217708 161.04878 
L 244.303509 152.407073 
L 245.38931 136.772391 
L 246.475111 142.531823 
L 247.560912 160.561541 
L 248.646713 162.956706 
L 249.732514 156.294844 
L 250.818316 155.086536 
L 251.904117 141.77926 
L 252.989918 168.35127 
L 254.075719 146.935539 
L 255.16152 154.454752 
L 256.247321 145.301488 
L 257.333123 153.448713 
L 258.418924 137.678878 
L 259.504725 165.873917 
L 260.590526 173.874102 
L 261.676327 174.940769 
L 262.762128 182.078109 
L 263.847929 153.7208 
L 264.933731 157.86372 
L 266.019532 147.222498 
L 267.105333 145.251283 
L 268.191134 154.201911 
L 269.276935 146.50503 
L 270.362736 154.137162 
L 271.448538 146.251083 
L 272.534339 150.774928 
L 273.62014 149.977062 
L 274.705941 169.778272 
L 275.791742 173.244772 
L 276.877543 166.750124 
L 277.963344 178.030038 
L 279.049146 166.060043 
L 280.134947 157.359721 
L 281.220748 168.560136 
L 282.306549 173.017161 
L 283.39235 166.653561 
L 284.478151 156.031273 
L 285.563953 143.61342 
L 286.649754 157.424328 
L 287.735555 167.545862 
L 288.821356 161.774149 
L 289.907157 171.446098 
L 290.992958 161.19587 
L 292.07876 153.360594 
L 293.164561 162.468831 
L 294.250362 138.837336 
L 295.336163 174.344394 
L 296.421964 178.979869 
L 297.507765 152.001058 
L 298.593566 145.018818 
L 299.679368 143.659172 
L 300.765169 159.891951 
L 301.85097 155.530638 
L 302.936771 154.577968 
L 304.022572 149.071015 
L 305.108373 164.659124 
L 306.194175 145.628532 
L 307.279976 168.056842 
L 308.365777 151.708713 
L 309.451578 165.937909 
L 310.537379 159.465991 
L 311.62318 144.375052 
L 312.708981 168.811652 
L 313.794783 182.146988 
L 314.880584 148.555 
L 315.966385 156.26102 
L 317.052186 146.639933 
L 318.137987 156.449143 
L 319.223788 149.583475 
L 320.30959 146.020945 
L 321.395391 150.119423 
L 322.481192 148.385818 
L 323.566993 160.30034 
L 324.652794 157.928694 
L 325.738595 161.593135 
L 326.824396 153.396429 
L 327.910198 149.591816 
L 328.995999 156.182357 
L 330.0818 171.920292 
L 331.167601 137.793891 
L 332.253402 157.220083 
L 333.339203 159.935136 
L 334.425005 160.627049 
L 335.510806 177.932177 
L 336.596607 164.468334 
L 337.682408 155.019987 
L 338.768209 169.085102 
L 339.85401 151.093672 
L 340.939811 155.45727 
L 342.025613 155.695429 
L 343.111414 143.578042 
L 344.197215 151.098299 
L 345.283016 142.611305 
L 346.368817 140.605035 
L 347.454618 136.79753 
L 348.54042 145.167899 
L 349.626221 150.595025 
L 350.712022 149.433985 
L 351.797823 150.050063 
L 352.883624 149.120112 
L 355.055227 161.156901 
L 356.141028 174.449599 
L 357.226829 147.294693 
L 358.31263 148.352046 
L 359.398431 164.448785 
L 360.484232 153.259064 
L 361.570033 147.228179 
L 362.655835 162.461649 
L 363.741636 157.083043 
L 364.827437 154.888048 
L 365.913238 157.194778 
L 366.999039 156.635976 
L 368.08484 140.584799 
L 369.170642 139.780367 
L 370.256443 140.344734 
L 371.342244 152.580742 
L 372.428045 152.873207 
L 373.513846 151.795746 
L 374.599647 154.125236 
L 375.685448 149.874138 
L 376.77125 137.408258 
L 377.857051 158.343054 
L 378.942852 164.781488 
L 380.028653 149.30397 
L 381.114454 155.662422 
L 382.200255 167.239793 
L 383.286057 174.329218 
L 384.371858 157.265313 
L 385.457659 153.780305 
L 386.54346 149.002868 
L 387.629261 166.405602 
L 388.715062 153.361997 
L 389.800863 156.181348 
L 390.886665 143.259929 
L 391.972466 158.103726 
L 393.058267 158.79966 
L 394.144068 155.067721 
L 395.229869 149.655309 
L 396.31567 157.161512 
L 397.401472 166.341322 
L 398.487273 143.267523 
L 398.487273 143.267523 
" style="fill:none;stroke:#008000;stroke-dasharray:9.6,2.4,1.5,2.4;stroke-dashoffset:0;stroke-width:1.5;"/>
   </g>
   <g id="line2d_27">
    <path clip-path="url(#p4a3f02493b)" d="M 73.832727 206.232388 
L 74.918528 151.907065 
L 76.00433 125.268919 
L 77.090131 112.0794 
L 78.175932 107.520189 
L 80.347534 90.892572 
L 81.433335 83.375657 
L 82.519137 78.260647 
L 83.604938 77.126487 
L 84.690739 74.512564 
L 85.77654 69.992513 
L 86.862341 72.702436 
L 87.948142 71.682746 
L 90.119745 76.085508 
L 91.205546 75.878253 
L 92.291347 71.851675 
L 93.377148 70.835258 
L 94.462949 78.142292 
L 95.54875 76.132093 
L 96.634552 73.132913 
L 97.720353 75.365932 
L 98.806154 73.773763 
L 99.891955 61.453958 
L 100.977756 71.907758 
L 102.063557 69.06478 
L 103.149358 63.013755 
L 104.23516 71.248352 
L 105.320961 63.105482 
L 106.406762 65.136949 
L 107.492563 65.173177 
L 108.578364 67.043149 
L 109.664165 62.063536 
L 110.749967 65.814434 
L 111.835768 67.483282 
L 112.921569 72.089576 
L 114.00737 69.800271 
L 115.093171 70.813561 
L 116.178972 68.547465 
L 117.264773 69.548178 
L 118.350575 74.734947 
L 119.436376 75.377787 
L 120.522177 70.128923 
L 121.607978 65.949876 
L 122.693779 75.529067 
L 123.77958 80.68901 
L 124.865382 69.788133 
L 125.951183 81.427144 
L 127.036984 81.793532 
L 128.122785 75.647157 
L 129.208586 74.645817 
L 130.294387 77.325218 
L 131.380189 72.428237 
L 132.46599 75.600882 
L 133.551791 71.13552 
L 134.637592 69.414823 
L 135.723393 65.471501 
L 136.809194 72.869062 
L 137.894995 71.052451 
L 138.980797 68.812627 
L 140.066598 66.184311 
L 141.152399 66.519533 
L 142.2382 71.358723 
L 143.324001 65.200718 
L 144.409802 68.740634 
L 145.495604 61.559847 
L 146.581405 64.748596 
L 147.667206 68.829305 
L 148.753007 63.524051 
L 149.838808 65.540351 
L 150.924609 70.241406 
L 152.01041 66.395044 
L 153.096212 63.408495 
L 154.182013 66.464357 
L 155.267814 68.307279 
L 156.353615 62.254956 
L 157.439416 66.035588 
L 158.525217 65.881508 
L 159.611019 64.035533 
L 160.69682 63.549412 
L 161.782621 64.517242 
L 162.868422 66.421669 
L 163.954223 70.008031 
L 165.040024 66.684949 
L 167.211627 61.176522 
L 168.297428 66.021312 
L 169.383229 57.576977 
L 170.46903 58.65178 
L 171.554831 65.167626 
L 173.726434 60.919486 
L 174.812235 57.916652 
L 175.898036 62.178127 
L 176.983837 67.502653 
L 178.069638 63.879846 
L 179.155439 59.794842 
L 180.24124 59.125669 
L 181.327042 65.074786 
L 182.412843 67.101322 
L 183.498644 68.395121 
L 184.584445 67.827378 
L 186.756047 66.016281 
L 187.841849 66.314479 
L 188.92765 62.512211 
L 190.013451 69.117013 
L 191.099252 63.96285 
L 192.185053 65.749906 
L 193.270854 63.254636 
L 194.356656 61.572769 
L 195.442457 68.020984 
L 196.528258 61.961736 
L 197.614059 62.111827 
L 198.69986 67.00999 
L 199.785661 64.492833 
L 200.871462 62.394444 
L 201.957264 61.654992 
L 203.043065 63.504112 
L 204.128866 60.593085 
L 205.214667 59.425023 
L 206.300468 64.681874 
L 207.386269 61.26464 
L 208.472071 62.247958 
L 209.557872 62.394889 
L 210.643673 65.371359 
L 211.729474 64.542829 
L 212.815275 64.173885 
L 213.901076 63.673912 
L 214.986877 61.555457 
L 216.072679 63.086289 
L 217.15848 60.401496 
L 218.244281 64.475751 
L 219.330082 66.650702 
L 220.415883 63.411277 
L 221.501684 60.526846 
L 222.587486 60.449434 
L 223.673287 64.19023 
L 224.759088 66.14311 
L 225.844889 62.823971 
L 226.93069 63.370568 
L 228.016491 62.107197 
L 229.102292 66.332223 
L 230.188094 64.868796 
L 231.273895 67.689216 
L 232.359696 64.88228 
L 233.445497 65.149602 
L 234.531298 59.722078 
L 235.617099 66.639314 
L 236.702901 62.696283 
L 237.788702 66.17737 
L 238.874503 64.12738 
L 239.960304 61.335277 
L 241.046105 64.225931 
L 242.131906 64.970003 
L 243.217708 61.639974 
L 244.303509 61.88875 
L 245.38931 65.045055 
L 246.475111 64.63667 
L 247.560912 61.905178 
L 248.646713 59.776455 
L 249.732514 58.556067 
L 250.818316 63.694399 
L 251.904117 60.326831 
L 252.989918 60.62108 
L 255.16152 60.707008 
L 256.247321 66.329913 
L 257.333123 59.226253 
L 258.418924 61.096685 
L 259.504725 66.184722 
L 260.590526 62.203374 
L 261.676327 62.047051 
L 262.762128 66.921816 
L 263.847929 57.488734 
L 264.933731 60.206702 
L 266.019532 60.279048 
L 267.105333 64.292987 
L 268.191134 66.532933 
L 269.276935 62.040082 
L 270.362736 63.400376 
L 271.448538 67.134396 
L 272.534339 63.920559 
L 273.62014 64.385372 
L 275.791742 61.544901 
L 276.877543 67.528867 
L 277.963344 62.421532 
L 279.049146 63.600616 
L 280.134947 61.776469 
L 281.220748 68.58311 
L 282.306549 65.23626 
L 283.39235 64.006256 
L 284.478151 59.907611 
L 285.563953 59.18098 
L 286.649754 66.063753 
L 287.735555 63.891079 
L 288.821356 66.154635 
L 289.907157 64.00968 
L 290.992958 60.582539 
L 292.07876 60.646583 
L 293.164561 63.417229 
L 294.250362 65.400293 
L 295.336163 63.93123 
L 296.421964 66.57851 
L 297.507765 63.849012 
L 298.593566 62.216286 
L 299.679368 65.33001 
L 300.765169 60.909504 
L 301.85097 58.587558 
L 302.936771 62.115835 
L 304.022572 62.138519 
L 305.108373 62.470334 
L 306.194175 62.206067 
L 307.279976 61.137543 
L 308.365777 61.565748 
L 309.451578 60.703071 
L 310.537379 56.095433 
L 311.62318 60.795125 
L 312.708981 61.048839 
L 313.794783 65.431912 
L 314.880584 59.745872 
L 315.966385 60.654819 
L 317.052186 66.146051 
L 318.137987 65.085028 
L 319.223788 62.403182 
L 320.30959 61.858061 
L 321.395391 61.445367 
L 322.481192 56.295882 
L 323.566993 63.387572 
L 324.652794 63.228017 
L 325.738595 61.517486 
L 326.824396 60.699563 
L 327.910198 62.550266 
L 328.995999 63.531125 
L 330.0818 59.871905 
L 331.167601 62.225069 
L 332.253402 65.135618 
L 333.339203 63.597351 
L 334.425005 61.573227 
L 335.510806 67.004503 
L 336.596607 59.530428 
L 337.682408 66.847237 
L 338.768209 64.838633 
L 339.85401 58.006528 
L 340.939811 60.548224 
L 342.025613 58.689209 
L 343.111414 59.505004 
L 344.197215 60.755137 
L 345.283016 64.801427 
L 346.368817 63.521576 
L 347.454618 63.332448 
L 348.54042 62.489072 
L 349.626221 64.011648 
L 351.797823 62.314054 
L 353.969425 57.853974 
L 355.055227 61.354225 
L 356.141028 53.568 
L 357.226829 60.850755 
L 358.31263 59.415942 
L 359.398431 60.260489 
L 360.484232 56.240799 
L 361.570033 57.742165 
L 362.655835 62.181015 
L 363.741636 57.701258 
L 364.827437 57.187423 
L 365.913238 64.050747 
L 366.999039 59.857995 
L 368.08484 64.185714 
L 369.170642 65.967101 
L 370.256443 60.429146 
L 371.342244 63.513567 
L 372.428045 61.711262 
L 373.513846 63.898899 
L 374.599647 60.592454 
L 375.685448 61.113361 
L 376.77125 63.898506 
L 377.857051 66.210796 
L 378.942852 62.703226 
L 380.028653 60.551149 
L 381.114454 60.121037 
L 382.200255 65.040881 
L 383.286057 62.858435 
L 384.371858 62.470373 
L 385.457659 63.091127 
L 386.54346 63.583284 
L 387.629261 63.299465 
L 388.715062 59.423987 
L 389.800863 65.086381 
L 390.886665 63.286866 
L 391.972466 59.389404 
L 393.058267 60.669584 
L 394.144068 61.137605 
L 395.229869 63.752373 
L 396.31567 61.996882 
L 397.401472 61.365428 
L 398.487273 61.5696 
L 398.487273 61.5696 
" style="fill:none;stroke:#008000;stroke-dasharray:9.6,2.4,1.5,2.4;stroke-dashoffset:0;stroke-width:1.5;"/>
   </g>
   <g id="line2d_28">
    <path clip-path="url(#p4a3f02493b)" d="M 73.832727 137.211478 
L 74.918528 108.90199 
L 76.00433 92.24935 
L 77.090131 87.253558 
L 78.175932 92.24935 
L 79.261733 82.257766 
L 80.347534 78.927238 
L 81.433335 77.261974 
L 85.77654 77.261974 
L 86.862341 75.59671 
L 91.205546 75.59671 
L 92.291347 77.261974 
L 94.462949 73.931446 
L 96.634552 77.261974 
L 98.806154 77.261974 
L 99.891955 73.931446 
L 102.063557 73.931446 
L 103.149358 77.261974 
L 105.320961 73.931446 
L 107.492563 73.931446 
L 108.578364 77.261974 
L 109.664165 72.266182 
L 110.749967 72.266182 
L 111.835768 73.931446 
L 112.921569 73.931446 
L 114.00737 72.266182 
L 115.093171 73.931446 
L 116.178972 72.266182 
L 117.264773 73.931446 
L 119.436376 73.931446 
L 120.522177 72.266182 
L 121.607978 72.266182 
L 122.693779 73.931446 
L 124.865382 73.931446 
L 125.951183 72.266182 
L 127.036984 73.931446 
L 128.122785 72.266182 
L 129.208586 73.931446 
L 130.294387 72.266182 
L 132.46599 75.59671 
L 134.637592 72.266182 
L 135.723393 72.266182 
L 136.809194 73.931446 
L 138.980797 73.931446 
L 140.066598 70.600918 
L 142.2382 73.931446 
L 143.324001 73.931446 
L 144.409802 72.266182 
L 146.581405 72.266182 
L 147.667206 73.931446 
L 148.753007 73.931446 
L 149.838808 70.600918 
L 150.924609 70.600918 
L 153.096212 73.931446 
L 156.353615 68.935654 
L 157.439416 70.600918 
L 158.525217 70.600918 
L 159.611019 72.266182 
L 160.69682 70.600918 
L 163.954223 70.600918 
L 165.040024 72.266182 
L 166.125825 68.935654 
L 168.297428 72.266182 
L 169.383229 70.600918 
L 171.554831 70.600918 
L 172.640632 72.266182 
L 173.726434 72.266182 
L 174.812235 73.931446 
L 183.498644 73.931446 
L 184.584445 72.266182 
L 185.670246 72.266182 
L 186.756047 73.931446 
L 188.92765 73.931446 
L 190.013451 70.600918 
L 192.185053 70.600918 
L 193.270854 72.266182 
L 194.356656 70.600918 
L 195.442457 70.600918 
L 196.528258 72.266182 
L 197.614059 70.600918 
L 198.69986 70.600918 
L 199.785661 68.935654 
L 200.871462 70.600918 
L 201.957264 70.600918 
L 203.043065 68.935654 
L 204.128866 72.266182 
L 205.214667 72.266182 
L 206.300468 68.935654 
L 207.386269 68.935654 
L 208.472071 72.266182 
L 209.557872 70.600918 
L 214.986877 70.600918 
L 216.072679 68.935654 
L 218.244281 72.266182 
L 219.330082 68.935654 
L 220.415883 70.600918 
L 221.501684 68.935654 
L 222.587486 70.600918 
L 224.759088 70.600918 
L 225.844889 72.266182 
L 226.93069 70.600918 
L 228.016491 73.931446 
L 229.102292 70.600918 
L 230.188094 70.600918 
L 231.273895 73.931446 
L 232.359696 70.600918 
L 233.445497 72.266182 
L 234.531298 70.600918 
L 235.617099 70.600918 
L 237.788702 73.931446 
L 238.874503 70.600918 
L 241.046105 70.600918 
L 242.131906 72.266182 
L 243.217708 70.600918 
L 246.475111 70.600918 
L 247.560912 72.266182 
L 248.646713 72.266182 
L 249.732514 70.600918 
L 250.818316 72.266182 
L 251.904117 72.266182 
L 252.989918 73.931446 
L 254.075719 70.600918 
L 255.16152 72.266182 
L 258.418924 72.266182 
L 259.504725 70.600918 
L 260.590526 72.266182 
L 264.933731 72.266182 
L 266.019532 70.600918 
L 267.105333 72.266182 
L 268.191134 70.600918 
L 270.362736 70.600918 
L 271.448538 72.266182 
L 272.534339 70.600918 
L 274.705941 70.600918 
L 276.877543 73.931446 
L 277.963344 70.600918 
L 279.049146 70.600918 
L 280.134947 73.931446 
L 281.220748 72.266182 
L 282.306549 72.266182 
L 283.39235 73.931446 
L 284.478151 72.266182 
L 285.563953 72.266182 
L 286.649754 70.600918 
L 287.735555 72.266182 
L 288.821356 70.600918 
L 292.07876 70.600918 
L 293.164561 72.266182 
L 296.421964 72.266182 
L 297.507765 70.600918 
L 299.679368 70.600918 
L 300.765169 72.266182 
L 301.85097 70.600918 
L 302.936771 70.600918 
L 304.022572 72.266182 
L 308.365777 72.266182 
L 309.451578 70.600918 
L 310.537379 70.600918 
L 311.62318 72.266182 
L 312.708981 70.600918 
L 314.880584 70.600918 
L 315.966385 72.266182 
L 319.223788 72.266182 
L 320.30959 68.935654 
L 321.395391 70.600918 
L 324.652794 70.600918 
L 325.738595 72.266182 
L 326.824396 70.600918 
L 333.339203 70.600918 
L 334.425005 72.266182 
L 335.510806 70.600918 
L 336.596607 72.266182 
L 337.682408 70.600918 
L 342.025613 70.600918 
L 343.111414 72.266182 
L 345.283016 68.935654 
L 346.368817 72.266182 
L 348.54042 68.935654 
L 349.626221 70.600918 
L 355.055227 70.600918 
L 356.141028 72.266182 
L 357.226829 70.600918 
L 359.398431 70.600918 
L 360.484232 72.266182 
L 361.570033 70.600918 
L 368.08484 70.600918 
L 369.170642 72.266182 
L 370.256443 72.266182 
L 371.342244 70.600918 
L 372.428045 72.266182 
L 373.513846 70.600918 
L 374.599647 72.266182 
L 375.685448 70.600918 
L 380.028653 70.600918 
L 381.114454 72.266182 
L 382.200255 70.600918 
L 383.286057 72.266182 
L 384.371858 70.600918 
L 385.457659 72.266182 
L 387.629261 72.266182 
L 388.715062 70.600918 
L 389.800863 70.600918 
L 390.886665 68.935654 
L 391.972466 70.600918 
L 394.144068 70.600918 
L 395.229869 72.266182 
L 396.31567 70.600918 
L 398.487273 70.600918 
L 398.487273 70.600918 
" style="fill:none;stroke:#ff0000;stroke-linecap:square;stroke-width:1.5;"/>
   </g>
   <g id="patch_3">
    <path d="M 57.6 307.584 
L 57.6 41.472 
" style="fill:none;stroke:#000000;stroke-linecap:square;stroke-linejoin:miter;stroke-width:0.8;"/>
   </g>
   <g id="patch_4">
    <path d="M 414.72 307.584 
L 414.72 41.472 
" style="fill:none;stroke:#000000;stroke-linecap:square;stroke-linejoin:miter;stroke-width:0.8;"/>
   </g>
   <g id="patch_5">
    <path d="M 57.6 307.584 
L 414.72 307.584 
" style="fill:none;stroke:#000000;stroke-linecap:square;stroke-linejoin:miter;stroke-width:0.8;"/>
   </g>
   <g id="patch_6">
    <path d="M 57.6 41.472 
L 414.72 41.472 
" style="fill:none;stroke:#000000;stroke-linecap:square;stroke-linejoin:miter;stroke-width:0.8;"/>
   </g>
   <g id="text_15">
    <!-- Population's average and best fitness -->
    <defs>
     <path d="M 19.671875 64.796875 
L 19.671875 37.40625 
L 32.078125 37.40625 
Q 38.96875 37.40625 42.71875 40.96875 
Q 46.484375 44.53125 46.484375 51.125 
Q 46.484375 57.671875 42.71875 61.234375 
Q 38.96875 64.796875 32.078125 64.796875 
z
M 9.8125 72.90625 
L 32.078125 72.90625 
Q 44.34375 72.90625 50.609375 67.359375 
Q 56.890625 61.8125 56.890625 51.125 
Q 56.890625 40.328125 50.609375 34.8125 
Q 44.34375 29.296875 32.078125 29.296875 
L 19.671875 29.296875 
L 19.671875 0 
L 9.8125 0 
z
" id="DejaVuSans-50"/>
     <path d="M 18.109375 8.203125 
L 18.109375 -20.796875 
L 9.078125 -20.796875 
L 9.078125 54.6875 
L 18.109375 54.6875 
L 18.109375 46.390625 
Q 20.953125 51.265625 25.265625 53.625 
Q 29.59375 56 35.59375 56 
Q 45.5625 56 51.78125 48.09375 
Q 58.015625 40.1875 58.015625 27.296875 
Q 58.015625 14.40625 51.78125 6.484375 
Q 45.5625 -1.421875 35.59375 -1.421875 
Q 29.59375 -1.421875 25.265625 0.953125 
Q 20.953125 3.328125 18.109375 8.203125 
z
M 48.6875 27.296875 
Q 48.6875 37.203125 44.609375 42.84375 
Q 40.53125 48.484375 33.40625 48.484375 
Q 26.265625 48.484375 22.1875 42.84375 
Q 18.109375 37.203125 18.109375 27.296875 
Q 18.109375 17.390625 22.1875 11.75 
Q 26.265625 6.109375 33.40625 6.109375 
Q 40.53125 6.109375 44.609375 11.75 
Q 48.6875 17.390625 48.6875 27.296875 
z
" id="DejaVuSans-70"/>
     <path d="M 8.5 21.578125 
L 8.5 54.6875 
L 17.484375 54.6875 
L 17.484375 21.921875 
Q 17.484375 14.15625 20.5 10.265625 
Q 23.53125 6.390625 29.59375 6.390625 
Q 36.859375 6.390625 41.078125 11.03125 
Q 45.3125 15.671875 45.3125 23.6875 
L 45.3125 54.6875 
L 54.296875 54.6875 
L 54.296875 0 
L 45.3125 0 
L 45.3125 8.40625 
Q 42.046875 3.421875 37.71875 1 
Q 33.40625 -1.421875 27.6875 -1.421875 
Q 18.265625 -1.421875 13.375 4.4375 
Q 8.5 10.296875 8.5 21.578125 
z
M 31.109375 56 
z
" id="DejaVuSans-75"/>
     <path d="M 9.421875 75.984375 
L 18.40625 75.984375 
L 18.40625 0 
L 9.421875 0 
z
" id="DejaVuSans-6c"/>
     <path d="M 17.921875 72.90625 
L 17.921875 45.796875 
L 9.625 45.796875 
L 9.625 72.90625 
z
" id="DejaVuSans-27"/>
     <path id="DejaVuSans-20"/>
     <path d="M 2.984375 54.6875 
L 12.5 54.6875 
L 29.59375 8.796875 
L 46.6875 54.6875 
L 56.203125 54.6875 
L 35.6875 0 
L 23.484375 0 
z
" id="DejaVuSans-76"/>
     <path d="M 45.40625 27.984375 
Q 45.40625 37.75 41.375 43.109375 
Q 37.359375 48.484375 30.078125 48.484375 
Q 22.859375 48.484375 18.828125 43.109375 
Q 14.796875 37.75 14.796875 27.984375 
Q 14.796875 18.265625 18.828125 12.890625 
Q 22.859375 7.515625 30.078125 7.515625 
Q 37.359375 7.515625 41.375 12.890625 
Q 45.40625 18.265625 45.40625 27.984375 
z
M 54.390625 6.78125 
Q 54.390625 -7.171875 48.1875 -13.984375 
Q 42 -20.796875 29.203125 -20.796875 
Q 24.46875 -20.796875 20.265625 -20.09375 
Q 16.0625 -19.390625 12.109375 -17.921875 
L 12.109375 -9.1875 
Q 16.0625 -11.328125 19.921875 -12.34375 
Q 23.78125 -13.375 27.78125 -13.375 
Q 36.625 -13.375 41.015625 -8.765625 
Q 45.40625 -4.15625 45.40625 5.171875 
L 45.40625 9.625 
Q 42.625 4.78125 38.28125 2.390625 
Q 33.9375 0 27.875 0 
Q 17.828125 0 11.671875 7.65625 
Q 5.515625 15.328125 5.515625 27.984375 
Q 5.515625 40.671875 11.671875 48.328125 
Q 17.828125 56 27.875 56 
Q 33.9375 56 38.28125 53.609375 
Q 42.625 51.21875 45.40625 46.390625 
L 45.40625 54.6875 
L 54.390625 54.6875 
z
" id="DejaVuSans-67"/>
     <path d="M 45.40625 46.390625 
L 45.40625 75.984375 
L 54.390625 75.984375 
L 54.390625 0 
L 45.40625 0 
L 45.40625 8.203125 
Q 42.578125 3.328125 38.25 0.953125 
Q 33.9375 -1.421875 27.875 -1.421875 
Q 17.96875 -1.421875 11.734375 6.484375 
Q 5.515625 14.40625 5.515625 27.296875 
Q 5.515625 40.1875 11.734375 48.09375 
Q 17.96875 56 27.875 56 
Q 33.9375 56 38.25 53.625 
Q 42.578125 51.265625 45.40625 46.390625 
z
M 14.796875 27.296875 
Q 14.796875 17.390625 18.875 11.75 
Q 22.953125 6.109375 30.078125 6.109375 
Q 37.203125 6.109375 41.296875 11.75 
Q 45.40625 17.390625 45.40625 27.296875 
Q 45.40625 37.203125 41.296875 42.84375 
Q 37.203125 48.484375 30.078125 48.484375 
Q 22.953125 48.484375 18.875 42.84375 
Q 14.796875 37.203125 14.796875 27.296875 
z
" id="DejaVuSans-64"/>
     <path d="M 48.6875 27.296875 
Q 48.6875 37.203125 44.609375 42.84375 
Q 40.53125 48.484375 33.40625 48.484375 
Q 26.265625 48.484375 22.1875 42.84375 
Q 18.109375 37.203125 18.109375 27.296875 
Q 18.109375 17.390625 22.1875 11.75 
Q 26.265625 6.109375 33.40625 6.109375 
Q 40.53125 6.109375 44.609375 11.75 
Q 48.6875 17.390625 48.6875 27.296875 
z
M 18.109375 46.390625 
Q 20.953125 51.265625 25.265625 53.625 
Q 29.59375 56 35.59375 56 
Q 45.5625 56 51.78125 48.09375 
Q 58.015625 40.1875 58.015625 27.296875 
Q 58.015625 14.40625 51.78125 6.484375 
Q 45.5625 -1.421875 35.59375 -1.421875 
Q 29.59375 -1.421875 25.265625 0.953125 
Q 20.953125 3.328125 18.109375 8.203125 
L 18.109375 0 
L 9.078125 0 
L 9.078125 75.984375 
L 18.109375 75.984375 
z
" id="DejaVuSans-62"/>
     <path d="M 37.109375 75.984375 
L 37.109375 68.5 
L 28.515625 68.5 
Q 23.6875 68.5 21.796875 66.546875 
Q 19.921875 64.59375 19.921875 59.515625 
L 19.921875 54.6875 
L 34.71875 54.6875 
L 34.71875 47.703125 
L 19.921875 47.703125 
L 19.921875 0 
L 10.890625 0 
L 10.890625 47.703125 
L 2.296875 47.703125 
L 2.296875 54.6875 
L 10.890625 54.6875 
L 10.890625 58.5 
Q 10.890625 67.625 15.140625 71.796875 
Q 19.390625 75.984375 28.609375 75.984375 
z
" id="DejaVuSans-66"/>
    </defs>
    <g transform="translate(123.315 35.472)scale(0.12 -0.12)">
     <use xlink:href="#DejaVuSans-50"/>
     <use x="60.255859" xlink:href="#DejaVuSans-6f"/>
     <use x="121.4375" xlink:href="#DejaVuSans-70"/>
     <use x="184.914062" xlink:href="#DejaVuSans-75"/>
     <use x="248.292969" xlink:href="#DejaVuSans-6c"/>
     <use x="276.076172" xlink:href="#DejaVuSans-61"/>
     <use x="337.355469" xlink:href="#DejaVuSans-74"/>
     <use x="376.564453" xlink:href="#DejaVuSans-69"/>
     <use x="404.347656" xlink:href="#DejaVuSans-6f"/>
     <use x="465.529297" xlink:href="#DejaVuSans-6e"/>
     <use x="528.908203" xlink:href="#DejaVuSans-27"/>
     <use x="556.398438" xlink:href="#DejaVuSans-73"/>
     <use x="608.498047" xlink:href="#DejaVuSans-20"/>
     <use x="640.285156" xlink:href="#DejaVuSans-61"/>
     <use x="701.564453" xlink:href="#DejaVuSans-76"/>
     <use x="760.744141" xlink:href="#DejaVuSans-65"/>
     <use x="822.267578" xlink:href="#DejaVuSans-72"/>
     <use x="863.380859" xlink:href="#DejaVuSans-61"/>
     <use x="924.660156" xlink:href="#DejaVuSans-67"/>
     <use x="988.136719" xlink:href="#DejaVuSans-65"/>
     <use x="1049.660156" xlink:href="#DejaVuSans-20"/>
     <use x="1081.447266" xlink:href="#DejaVuSans-61"/>
     <use x="1142.726562" xlink:href="#DejaVuSans-6e"/>
     <use x="1206.105469" xlink:href="#DejaVuSans-64"/>
     <use x="1269.582031" xlink:href="#DejaVuSans-20"/>
     <use x="1301.369141" xlink:href="#DejaVuSans-62"/>
     <use x="1364.845703" xlink:href="#DejaVuSans-65"/>
     <use x="1426.369141" xlink:href="#DejaVuSans-73"/>
     <use x="1478.46875" xlink:href="#DejaVuSans-74"/>
     <use x="1517.677734" xlink:href="#DejaVuSans-20"/>
     <use x="1549.464844" xlink:href="#DejaVuSans-66"/>
     <use x="1584.669922" xlink:href="#DejaVuSans-69"/>
     <use x="1612.453125" xlink:href="#DejaVuSans-74"/>
     <use x="1651.662109" xlink:href="#DejaVuSans-6e"/>
     <use x="1715.041016" xlink:href="#DejaVuSans-65"/>
     <use x="1776.564453" xlink:href="#DejaVuSans-73"/>
     <use x="1828.664062" xlink:href="#DejaVuSans-73"/>
    </g>
   </g>
   <g id="legend_1">
    <g id="patch_7">
     <path d="M 334.779375 302.584 
L 407.72 302.584 
Q 409.72 302.584 409.72 300.584 
L 409.72 242.8715 
Q 409.72 240.8715 407.72 240.8715 
L 334.779375 240.8715 
Q 332.779375 240.8715 332.779375 242.8715 
L 332.779375 300.584 
Q 332.779375 302.584 334.779375 302.584 
z
" style="fill:#ffffff;opacity:0.8;stroke:#cccccc;stroke-linejoin:miter;"/>
    </g>
    <g id="line2d_29">
     <path d="M 336.779375 248.969937 
L 356.779375 248.969937 
" style="fill:none;stroke:#0000ff;stroke-linecap:square;stroke-width:1.5;"/>
    </g>
    <g id="line2d_30"/>
    <g id="text_16">
     <!-- average -->
     <g transform="translate(364.779375 252.469937)scale(0.1 -0.1)">
      <use xlink:href="#DejaVuSans-61"/>
      <use x="61.279297" xlink:href="#DejaVuSans-76"/>
      <use x="120.458984" xlink:href="#DejaVuSans-65"/>
      <use x="181.982422" xlink:href="#DejaVuSans-72"/>
      <use x="223.095703" xlink:href="#DejaVuSans-61"/>
      <use x="284.375" xlink:href="#DejaVuSans-67"/>
      <use x="347.851562" xlink:href="#DejaVuSans-65"/>
     </g>
    </g>
    <g id="line2d_31">
     <path d="M 336.779375 263.648062 
L 356.779375 263.648062 
" style="fill:none;stroke:#008000;stroke-dasharray:9.6,2.4,1.5,2.4;stroke-dashoffset:0;stroke-width:1.5;"/>
    </g>
    <g id="line2d_32"/>
    <g id="text_17">
     <!-- -1 sd -->
     <defs>
      <path d="M 4.890625 31.390625 
L 31.203125 31.390625 
L 31.203125 23.390625 
L 4.890625 23.390625 
z
" id="DejaVuSans-2d"/>
     </defs>
     <g transform="translate(364.779375 267.148062)scale(0.1 -0.1)">
      <use xlink:href="#DejaVuSans-2d"/>
      <use x="36.083984" xlink:href="#DejaVuSans-31"/>
      <use x="99.707031" xlink:href="#DejaVuSans-20"/>
      <use x="131.494141" xlink:href="#DejaVuSans-73"/>
      <use x="183.59375" xlink:href="#DejaVuSans-64"/>
     </g>
    </g>
    <g id="line2d_33">
     <path d="M 336.779375 278.326187 
L 356.779375 278.326187 
" style="fill:none;stroke:#008000;stroke-dasharray:9.6,2.4,1.5,2.4;stroke-dashoffset:0;stroke-width:1.5;"/>
    </g>
    <g id="line2d_34"/>
    <g id="text_18">
     <!-- +1 sd -->
     <defs>
      <path d="M 46 62.703125 
L 46 35.5 
L 73.1875 35.5 
L 73.1875 27.203125 
L 46 27.203125 
L 46 0 
L 37.796875 0 
L 37.796875 27.203125 
L 10.59375 27.203125 
L 10.59375 35.5 
L 37.796875 35.5 
L 37.796875 62.703125 
z
" id="DejaVuSans-2b"/>
     </defs>
     <g transform="translate(364.779375 281.826187)scale(0.1 -0.1)">
      <use xlink:href="#DejaVuSans-2b"/>
      <use x="83.789062" xlink:href="#DejaVuSans-31"/>
      <use x="147.412109" xlink:href="#DejaVuSans-20"/>
      <use x="179.199219" xlink:href="#DejaVuSans-73"/>
      <use x="231.298828" xlink:href="#DejaVuSans-64"/>
     </g>
    </g>
    <g id="line2d_35">
     <path d="M 336.779375 293.004312 
L 356.779375 293.004312 
" style="fill:none;stroke:#ff0000;stroke-linecap:square;stroke-width:1.5;"/>
    </g>
    <g id="line2d_36"/>
    <g id="text_19">
     <!-- best -->
     <g transform="translate(364.779375 296.504312)scale(0.1 -0.1)">
      <use xlink:href="#DejaVuSans-62"/>
      <use x="63.476562" xlink:href="#DejaVuSans-65"/>
      <use x="125" xlink:href="#DejaVuSans-73"/>
      <use x="177.099609" xlink:href="#DejaVuSans-74"/>
     </g>
    </g>
   </g>
  </g>
 </g>
 <defs>
  <clipPath id="p4a3f02493b">
   <rect height="266.112" width="357.12" x="57.6" y="41.472"/>
  </clipPath>
 </defs>
</svg>
